# vtk DataFile Version 3.0
solver field output
ASCII
DATASET UNSTRUCTURED_GRID
POINTS 1116 double
2.5 -2 0
3.5 -2 0
3.5 -2 1
2.5 -2 1
2.5 0 0
3.5 0 0
3.5 0 1
2.5 0 1
1.53081e-16 2.5 0
2.14313e-16 3.5 0
2.14313e-16 3.5 1
1.53081e-16 2.5 1
-2 2.5 0
-2 3.5 0
-2 3.5 1
-2 2.5 1
2.7 -2 0
2.9 -2 0
3.1 -2 0
3.3 -2 0
3.5 -2 0.2
3.5 -2 0.4
3.5 -2 0.6
3.5 -2 0.8
3.3 -2 1
3.1 -2 1
2.9 -2 1
2.7 -2 1
2.5 -2 0.8
2.5 -2 0.6
2.5 -2 0.4
2.5 -2 0.2
2.7 0 0
2.9 0 0
3.1 0 0
3.3 0 0
3.5 0 0.2
3.5 0 0.4
3.5 0 0.6
3.5 0 0.8
3.3 0 1
3.1 0 1
2.9 0 1
2.7 0 1
2.5 0 0.8
2.5 0 0.6
2.5 0 0.4
2.5 0 0.2
2.5 -1.66667 0
2.5 -1.33333 0
2.5 -1 0
2.5 -0.666667 0
2.5 -0.333333 0
3.5 -1.66667 0
3.5 -1.33333 0
3.5 -1 0
3.5 -0.666667 0
3.5 -0.333333 0
3.5 -1.66667 1
3.5 -1.33333 1
3.5 -1 1
3.5 -0.666667 1
3.5 -0.333333 1
2.5 -1.66667 1
2.5 -1.33333 1
2.5 -1 1
2.5 -0.666667 1
2.5 -0.333333 1
1.65327e-16 2.7 0
1.77574e-16 2.9 0
1.8982e-16 3.1 0
2.02067e-16 3.3 0
2.14313e-16 3.5 0.2
2.14313e-16 3.5 0.4
2.14313e-16 3.5 0.6
2.14313e-16 3.5 0.8
2.02067e-16 3.3 1
1.8982e-16 3.1 1
1.77574e-16 2.9 1
1.65327e-16 2.7 1
1.53081e-16 2.5 0.8
1.53081e-16 2.5 0.6
1.53081e-16 2.5 0.4
1.53081e-16 2.5 0.2
2.49049 0.217889 0
2.46202 0.43412 0
2.41481 0.647048 0
2.34923 0.85505 0
2.26577 1.05655 0
2.16506 1.25 0
2.04788 1.43394 0
1.91511 1.60697 0
1.76777 1.76777 0
1.60697 1.91511 0
1.43394 2.04788 0
1.25 2.16506 0
1.05655 2.26577 0
0.85505 2.34923 0
0.647048 2.41481 0
0.43412 2.46202 0
0.217889 2.49049 0
3.48668 0.305045 0
3.44683 0.607769 0
3.38074 0.905867 0
3.28892 1.19707 0
3.17208 1.47916 0
3.03109 1.75 0
2.86703 2.00752 0
2.68116 2.24976 0
2.47487 2.47487 0
2.24976 2.68116 0
2.00752 2.86703 0
1.75 3.03109 0
1.47916 3.17208 0
1.19707 3.28892 0
0.905867 3.38074 0
0.607769 3.44683 0
0.305045 3.48668 0
3.48668 0.305045 1
3.44683 0.607769 1
3.38074 0.905867 1
3.28892 1.19707 1
3.17208 1.47916 1
3.03109 1.75 1
2.86703 2.00752 1
2.68116 2.24976 1
2.47487 2.47487 1
2.24976 2.68116 1
2.00752 2.86703 1
1.75 3.03109 1
1.47916 3.17208 1
1.19707 3.28892 1
0.905867 3.38074 1
0.607769 3.44683 1
0.305045 3.48668 1
2.49049 0.217889 1
2.46202 0.43412 1
2.41481 0.647048 1
2.34923 0.85505 1
2.26577 1.05655 1
2.16506 1.25 1
2.04788 1.43394 1
1.91511 1.60697 1
1.76777 1.76777 1
1.60697 1.91511 1
1.43394 2.04788 1
1.25 2.16506 1
1.05655 2.26577 1
0.85505 2.34923 1
0.647048 2.41481 1
0.43412 2.46202 1
0.217889 2.49049 1
-2 2.7 0
-2 2.9 0
-2 3.1 0
-2 3.3 0
-2 3.5 0.2
-2 3.5 0.4
-2 3.5 0.6
-2 3.5 0.8
-2 3.3 1
-2 3.1 1
-2 2.9 1
-2 2.7 1
-2 2.5 0.8
-2 2.5 0.6
-2 2.5 0.4
-2 2.5 0.2
-0.333333 2.5 0
-0.666667 2.5 0
-1 2.5 0
-1.33333 2.5 0
-1.66667 2.5 0
-0.333333 3.5 0
-0.666667 3.5 0
-1 3.5 0
-1.33333 3.5 0
-1.66667 3.5 0
-0.333333 3.5 1
-0.666667 3.5 1
-1 3.5 1
-1.33333 3.5 1
-1.66667 3.5 1
-0.333333 2.5 1
-0.666667 2.5 1
-1 2.5 1
-1.33333 2.5 1
-1.66667 2.5 1
2.7 -2 0.2
2.7 -2 0.4
2.7 -2 0.6
2.7 -2 0.8
2.9 -2 0.2
2.9 -2 0.4
2.9 -2 0.6
2.9 -2 0.8
3.1 -2 0.2
3.1 -2 0.4
3.1 -2 0.6
3.1 -2 0.8
3.3 -2 0.2
3.3 -2 0.4
3.3 -2 0.6
3.3 -2 0.8
2.7 -1.66667 0
2.7 -1.33333 0
2.7 -1 0
2.7 -0.666667 0
2.7 -0.333333 0
2.9 -1.66667 0
2.9 -1.33333 0
2.9 -1 0
2.9 -0.666667 0
2.9 -0.333333 0
3.1 -1.66667 0
3.1 -1.33333 0
3.1 -1 0
3.1 -0.666667 0
3.1 -0.333333 0
3.3 -1.66667 0
3.3 -1.33333 0
3.3 -1 0
3.3 -0.666667 0
3.3 -0.333333 0
3.5 -1.66667 0.2
3.5 -1.33333 0.2
3.5 -1 0.2
3.5 -0.666667 0.2
3.5 -0.333333 0.2
3.5 -1.66667 0.4
3.5 -1.33333 0.4
3.5 -1 0.4
3.5 -0.666667 0.4
3.5 -0.333333 0.4
3.5 -1.66667 0.6
3.5 -1.33333 0.6
3.5 -1 0.6
3.5 -0.666667 0.6
3.5 -0.333333 0.6
3.5 -1.66667 0.8
3.5 -1.33333 0.8
3.5 -1 0.8
3.5 -0.666667 0.8
3.5 -0.333333 0.8
3.3 -1.66667 1
3.3 -1.33333 1
3.3 -1 1
3.3 -0.666667 1
3.3 -0.333333 1
3.1 -1.66667 1
3.1 -1.33333 1
3.1 -1 1
3.1 -0.666667 1
3.1 -0.333333 1
2.9 -1.66667 1
2.9 -1.33333 1
2.9 -1 1
2.9 -0.666667 1
2.9 -0.333333 1
2.7 -1.66667 1
2.7 -1.33333 1
2.7 -1 1
2.7 -0.666667 1
2.7 -0.333333 1
2.5 -1.66667 0.8
2.5 -1.33333 0.8
2.5 -1 0.8
2.5 -0.666667 0.8
2.5 -0.333333 0.8
2.5 -1.66667 0.6
2.5 -1.33333 0.6
2.5 -1 0.6
2.5 -0.666667 0.6
2.5 -0.333333 0.6
2.5 -1.66667 0.4
2.5 -1.33333 0.4
2.5 -1 0.4
2.5 -0.666667 0.4
2.5 -0.333333 0.4
2.5 -1.66667 0.2
2.5 -1.33333 0.2
2.5 -1 0.2
2.5 -0.666667 0.2
2.5 -0.333333 0.2
2.7 0 0.2
2.7 0 0.4
2.7 0 0.6
2.7 0 0.8
2.9 0 0.2
2.9 0 0.4
2.9 0 0.6
2.9 0 0.8
3.1 0 0.2
3.1 0 0.4
3.1 0 0.6
3.1 0 0.8
3.3 0 0.2
3.3 0 0.4
3.3 0 0.6
3.3 0 0.8
2.68973 0.235321 0
2.65898 0.46885 0
2.608 0.698811 0
2.53717 0.923454 0
2.44703 1.14107 0
2.33827 1.35 0
2.21171 1.54866 0
2.06832 1.73553 0
1.90919 1.90919 0
1.73553 2.06832 0
1.54866 2.21171 0
1.35 2.33827 0
1.14107 2.44703 0
0.923454 2.53717 0
0.698811 2.608 0
0.46885 2.65898 0
0.235321 2.68973 0
2.88896 0.252752 0
2.85594 0.50358 0
2.80118 0.750575 0
2.72511 0.991858 0
2.62829 1.22559 0
2.51147 1.45 0
2.37554 1.66337 0
2.22153 1.86408 0
2.05061 2.05061 0
1.86408 2.22153 0
1.66337 2.37554 0
1.45 2.51147 0
1.22559 2.62829 0
0.991858 2.72511 0
0.750575 2.80118 0
0.50358 2.85594 0
0.252752 2.88896 0
3.0882 0.270183 0
3.0529 0.538309 0
2.99437 0.802339 0
2.91305 1.06026 0
2.80955 1.31012 0
2.68468 1.55 0
2.53937 1.77809 0
2.37474 1.99264 0
2.19203 2.19203 0
1.99264 2.37474 0
1.77809 2.53937 0
1.55 2.68468 0
1.31012 2.80955 0
1.06026 2.91305 0
0.802339 2.99437 0
0.538309 3.0529 0
0.270183 3.0882 0
3.28744 0.287614 0
3.24987 0.573039 0
3.18756 0.854103 0
3.10099 1.12867 0
2.99082 1.39464 0
2.85788 1.65 0
2.7032 1.8928 0
2.52795 2.1212 0
2.33345 2.33345 0
2.1212 2.52795 0
1.8928 2.7032 0
1.65 2.85788 0
1.39464 2.99082 0
1.12867 3.10099 0
0.854103 3.18756 0
0.573039 3.24987 0
0.287614 3.28744 0
3.48668 0.305045 0.2
3.44683 0.607769 0.2
3.38074 0.905867 0.2
3.28892 1.19707 0.2
3.17208 1.47916 0.2
3.03109 1.75 0.2
2.86703 2.00752 0.2
2.68116 2.24976 0.2
2.47487 2.47487 0.2
2.24976 2.68116 0.2
2.00752 2.86703 0.2
1.75 3.03109 0.2
1.47916 3.17208 0.2
1.19707 3.28892 0.2
0.905867 3.38074 0.2
0.607769 3.44683 0.2
0.305045 3.48668 0.2
3.48668 0.305045 0.4
3.44683 0.607769 0.4
3.38074 0.905867 0.4
3.28892 1.19707 0.4
3.17208 1.47916 0.4
3.03109 1.75 0.4
2.86703 2.00752 0.4
2.68116 2.24976 0.4
2.47487 2.47487 0.4
2.24976 2.68116 0.4
2.00752 2.86703 0.4
1.75 3.03109 0.4
1.47916 3.17208 0.4
1.19707 3.28892 0.4
0.905867 3.38074 0.4
0.607769 3.44683 0.4
0.305045 3.48668 0.4
3.48668 0.305045 0.6
3.44683 0.607769 0.6
3.38074 0.905867 0.6
3.28892 1.19707 0.6
3.17208 1.47916 0.6
3.03109 1.75 0.6
2.86703 2.00752 0.6
2.68116 2.24976 0.6
2.47487 2.47487 0.6
2.24976 2.68116 0.6
2.00752 2.86703 0.6
1.75 3.03109 0.6
1.47916 3.17208 0.6
1.19707 3.28892 0.6
0.905867 3.38074 0.6
0.607769 3.44683 0.6
0.305045 3.48668 0.6
3.48668 0.305045 0.8
3.44683 0.607769 0.8
3.38074 0.905867 0.8
3.28892 1.19707 0.8
3.17208 1.47916 0.8
3.03109 1.75 0.8
2.86703 2.00752 0.8
2.68116 2.24976 0.8
2.47487 2.47487 0.8
2.24976 2.68116 0.8
2.00752 2.86703 0.8
1.75 3.03109 0.8
1.47916 3.17208 0.8
1.19707 3.28892 0.8
0.905867 3.38074 0.8
0.607769 3.44683 0.8
0.305045 3.48668 0.8
3.28744 0.287614 1
3.24987 0.573039 1
3.18756 0.854103 1
3.10099 1.12867 1
2.99082 1.39464 1
2.85788 1.65 1
2.7032 1.8928 1
2.52795 2.1212 1
2.33345 2.33345 1
2.1212 2.52795 1
1.8928 2.7032 1
1.65 2.85788 1
1.39464 2.99082 1
1.12867 3.10099 1
0.854103 3.18756 1
0.573039 3.24987 1
0.287614 3.28744 1
3.0882 0.270183 1
3.0529 0.538309 1
2.99437 0.802339 1
2.91305 1.06026 1
2.80955 1.31012 1
2.68468 1.55 1
2.53937 1.77809 1
2.37474 1.99264 1
2.19203 2.19203 1
1.99264 2.37474 1
1.77809 2.53937 1
1.55 2.68468 1
1.31012 2.80955 1
1.06026 2.91305 1
0.802339 2.99437 1
0.538309 3.0529 1
0.270183 3.0882 1
2.88896 0.252752 1
2.85594 0.50358 1
2.80118 0.750575 1
2.72511 0.991858 1
2.62829 1.22559 1
2.51147 1.45 1
2.37554 1.66337 1
2.22153 1.86408 1
2.05061 2.05061 1
1.86408 2.22153 1
1.66337 2.37554 1
1.45 2.51147 1
1.22559 2.62829 1
0.991858 2.72511 1
0.750575 2.80118 1
0.50358 2.85594 1
0.252752 2.88896 1
2.68973 0.235321 1
2.65898 0.46885 1
2.608 0.698811 1
2.53717 0.923454 1
2.44703 1.14107 1
2.33827 1.35 1
2.21171 1.54866 1
2.06832 1.73553 1
1.90919 1.90919 1
1.73553 2.06832 1
1.54866 2.21171 1
1.35 2.33827 1
1.14107 2.44703 1
0.923454 2.53717 1
0.698811 2.608 1
0.46885 2.65898 1
0.235321 2.68973 1
2.49049 0.217889 0.8
2.46202 0.43412 0.8
2.41481 0.647048 0.8
2.34923 0.85505 0.8
2.26577 1.05655 0.8
2.16506 1.25 0.8
2.04788 1.43394 0.8
1.91511 1.60697 0.8
1.76777 1.76777 0.8
1.60697 1.91511 0.8
1.43394 2.04788 0.8
1.25 2.16506 0.8
1.05655 2.26577 0.8
0.85505 2.34923 0.8
0.647048 2.41481 0.8
0.43412 2.46202 0.8
0.217889 2.49049 0.8
2.49049 0.217889 0.6
2.46202 0.43412 0.6
2.41481 0.647048 0.6
2.34923 0.85505 0.6
2.26577 1.05655 0.6
2.16506 1.25 0.6
2.04788 1.43394 0.6
1.91511 1.60697 0.6
1.76777 1.76777 0.6
1.60697 1.91511 0.6
1.43394 2.04788 0.6
1.25 2.16506 0.6
1.05655 2.26577 0.6
0.85505 2.34923 0.6
0.647048 2.41481 0.6
0.43412 2.46202 0.6
0.217889 2.49049 0.6
2.49049 0.217889 0.4
2.46202 0.43412 0.4
2.41481 0.647048 0.4
2.34923 0.85505 0.4
2.26577 1.05655 0.4
2.16506 1.25 0.4
2.04788 1.43394 0.4
1.91511 1.60697 0.4
1.76777 1.76777 0.4
1.60697 1.91511 0.4
1.43394 2.04788 0.4
1.25 2.16506 0.4
1.05655 2.26577 0.4
0.85505 2.34923 0.4
0.647048 2.41481 0.4
0.43412 2.46202 0.4
0.217889 2.49049 0.4
2.49049 0.217889 0.2
2.46202 0.43412 0.2
2.41481 0.647048 0.2
2.34923 0.85505 0.2
2.26577 1.05655 0.2
2.16506 1.25 0.2
2.04788 1.43394 0.2
1.91511 1.60697 0.2
1.76777 1.76777 0.2
1.60697 1.91511 0.2
1.43394 2.04788 0.2
1.25 2.16506 0.2
1.05655 2.26577 0.2
0.85505 2.34923 0.2
0.647048 2.41481 0.2
0.43412 2.46202 0.2
0.217889 2.49049 0.2
1.65327e-16 2.7 0.2
1.65327e-16 2.7 0.4
1.65327e-16 2.7 0.6
1.65327e-16 2.7 0.8
1.77574e-16 2.9 0.2
1.77574e-16 2.9 0.4
1.77574e-16 2.9 0.6
1.77574e-16 2.9 0.8
1.8982e-16 3.1 0.2
1.8982e-16 3.1 0.4
1.8982e-16 3.1 0.6
1.8982e-16 3.1 0.8
2.02067e-16 3.3 0.2
2.02067e-16 3.3 0.4
2.02067e-16 3.3 0.6
2.02067e-16 3.3 0.8
-0.333333 2.7 0
-0.666667 2.7 0
-1 2.7 0
-1.33333 2.7 0
-1.66667 2.7 0
-0.333333 2.9 0
-0.666667 2.9 0
-1 2.9 0
-1.33333 2.9 0
-1.66667 2.9 0
-0.333333 3.1 0
-0.666667 3.1 0
-1 3.1 0
-1.33333 3.1 0
-1.66667 3.1 0
-0.333333 3.3 0
-0.666667 3.3 0
-1 3.3 0
-1.33333 3.3 0
-1.66667 3.3 0
-0.333333 3.5 0.2
-0.666667 3.5 0.2
-1 3.5 0.2
-1.33333 3.5 0.2
-1.66667 3.5 0.2
-0.333333 3.5 0.4
-0.666667 3.5 0.4
-1 3.5 0.4
-1.33333 3.5 0.4
-1.66667 3.5 0.4
-0.333333 3.5 0.6
-0.666667 3.5 0.6
-1 3.5 0.6
-1.33333 3.5 0.6
-1.66667 3.5 0.6
-0.333333 3.5 0.8
-0.666667 3.5 0.8
-1 3.5 0.8
-1.33333 3.5 0.8
-1.66667 3.5 0.8
-0.333333 3.3 1
-0.666667 3.3 1
-1 3.3 1
-1.33333 3.3 1
-1.66667 3.3 1
-0.333333 3.1 1
-0.666667 3.1 1
-1 3.1 1
-1.33333 3.1 1
-1.66667 3.1 1
-0.333333 2.9 1
-0.666667 2.9 1
-1 2.9 1
-1.33333 2.9 1
-1.66667 2.9 1
-0.333333 2.7 1
-0.666667 2.7 1
-1 2.7 1
-1.33333 2.7 1
-1.66667 2.7 1
-0.333333 2.5 0.8
-0.666667 2.5 0.8
-1 2.5 0.8
-1.33333 2.5 0.8
-1.66667 2.5 0.8
-0.333333 2.5 0.6
-0.666667 2.5 0.6
-1 2.5 0.6
-1.33333 2.5 0.6
-1.66667 2.5 0.6
-0.333333 2.5 0.4
-0.666667 2.5 0.4
-1 2.5 0.4
-1.33333 2.5 0.4
-1.66667 2.5 0.4
-0.333333 2.5 0.2
-0.666667 2.5 0.2
-1 2.5 0.2
-1.33333 2.5 0.2
-1.66667 2.5 0.2
-2 2.7 0.2
-2 2.7 0.4
-2 2.7 0.6
-2 2.7 0.8
-2 2.9 0.2
-2 2.9 0.4
-2 2.9 0.6
-2 2.9 0.8
-2 3.1 0.2
-2 3.1 0.4
-2 3.1 0.6
-2 3.1 0.8
-2 3.3 0.2
-2 3.3 0.4
-2 3.3 0.6
-2 3.3 0.8
2.7 -1.66667 0.2
2.7 -1.33333 0.2
2.7 -1 0.2
2.7 -0.666667 0.2
2.7 -0.333333 0.2
2.7 -1.66667 0.4
2.7 -1.33333 0.4
2.7 -1 0.4
2.7 -0.666667 0.4
2.7 -0.333333 0.4
2.7 -1.66667 0.6
2.7 -1.33333 0.6
2.7 -1 0.6
2.7 -0.666667 0.6
2.7 -0.333333 0.6
2.7 -1.66667 0.8
2.7 -1.33333 0.8
2.7 -1 0.8
2.7 -0.666667 0.8
2.7 -0.333333 0.8
2.9 -1.66667 0.2
2.9 -1.33333 0.2
2.9 -1 0.2
2.9 -0.666667 0.2
2.9 -0.333333 0.2
2.9 -1.66667 0.4
2.9 -1.33333 0.4
2.9 -1 0.4
2.9 -0.666667 0.4
2.9 -0.333333 0.4
2.9 -1.66667 0.6
2.9 -1.33333 0.6
2.9 -1 0.6
2.9 -0.666667 0.6
2.9 -0.333333 0.6
2.9 -1.66667 0.8
2.9 -1.33333 0.8
2.9 -1 0.8
2.9 -0.666667 0.8
2.9 -0.333333 0.8
3.1 -1.66667 0.2
3.1 -1.33333 0.2
3.1 -1 0.2
3.1 -0.666667 0.2
3.1 -0.333333 0.2
3.1 -1.66667 0.4
3.1 -1.33333 0.4
3.1 -1 0.4
3.1 -0.666667 0.4
3.1 -0.333333 0.4
3.1 -1.66667 0.6
3.1 -1.33333 0.6
3.1 -1 0.6
3.1 -0.666667 0.6
3.1 -0.333333 0.6
3.1 -1.66667 0.8
3.1 -1.33333 0.8
3.1 -1 0.8
3.1 -0.666667 0.8
3.1 -0.333333 0.8
3.3 -1.66667 0.2
3.3 -1.33333 0.2
3.3 -1 0.2
3.3 -0.666667 0.2
3.3 -0.333333 0.2
3.3 -1.66667 0.4
3.3 -1.33333 0.4
3.3 -1 0.4
3.3 -0.666667 0.4
3.3 -0.333333 0.4
3.3 -1.66667 0.6
3.3 -1.33333 0.6
3.3 -1 0.6
3.3 -0.666667 0.6
3.3 -0.333333 0.6
3.3 -1.66667 0.8
3.3 -1.33333 0.8
3.3 -1 0.8
3.3 -0.666667 0.8
3.3 -0.333333 0.8
2.68973 0.235321 0.2
2.65898 0.46885 0.2
2.608 0.698811 0.2
2.53717 0.923454 0.2
2.44703 1.14107 0.2
2.33827 1.35 0.2
2.21171 1.54866 0.2
2.06832 1.73553 0.2
1.90919 1.90919 0.2
1.73553 2.06832 0.2
1.54866 2.21171 0.2
1.35 2.33827 0.2
1.14107 2.44703 0.2
0.923454 2.53717 0.2
0.698811 2.608 0.2
0.46885 2.65898 0.2
0.235321 2.68973 0.2
2.68973 0.235321 0.4
2.65898 0.46885 0.4
2.608 0.698811 0.4
2.53717 0.923454 0.4
2.44703 1.14107 0.4
2.33827 1.35 0.4
2.21171 1.54866 0.4
2.06832 1.73553 0.4
1.90919 1.90919 0.4
1.73553 2.06832 0.4
1.54866 2.21171 0.4
1.35 2.33827 0.4
1.14107 2.44703 0.4
0.923454 2.53717 0.4
0.698811 2.608 0.4
0.46885 2.65898 0.4
0.235321 2.68973 0.4
2.68973 0.235321 0.6
2.65898 0.46885 0.6
2.608 0.698811 0.6
2.53717 0.923454 0.6
2.44703 1.14107 0.6
2.33827 1.35 0.6
2.21171 1.54866 0.6
2.06832 1.73553 0.6
1.90919 1.90919 0.6
1.73553 2.06832 0.6
1.54866 2.21171 0.6
1.35 2.33827 0.6
1.14107 2.44703 0.6
0.923454 2.53717 0.6
0.698811 2.608 0.6
0.46885 2.65898 0.6
0.235321 2.68973 0.6
2.68973 0.235321 0.8
2.65898 0.46885 0.8
2.608 0.698811 0.8
2.53717 0.923454 0.8
2.44703 1.14107 0.8
2.33827 1.35 0.8
2.21171 1.54866 0.8
2.06832 1.73553 0.8
1.90919 1.90919 0.8
1.73553 2.06832 0.8
1.54866 2.21171 0.8
1.35 2.33827 0.8
1.14107 2.44703 0.8
0.923454 2.53717 0.8
0.698811 2.608 0.8
0.46885 2.65898 0.8
0.235321 2.68973 0.8
2.88896 0.252752 0.2
2.85594 0.50358 0.2
2.80118 0.750575 0.2
2.72511 0.991858 0.2
2.62829 1.22559 0.2
2.51147 1.45 0.2
2.37554 1.66337 0.2
2.22153 1.86408 0.2
2.05061 2.05061 0.2
1.86408 2.22153 0.2
1.66337 2.37554 0.2
1.45 2.51147 0.2
1.22559 2.62829 0.2
0.991858 2.72511 0.2
0.750575 2.80118 0.2
0.50358 2.85594 0.2
0.252752 2.88896 0.2
2.88896 0.252752 0.4
2.85594 0.50358 0.4
2.80118 0.750575 0.4
2.72511 0.991858 0.4
2.62829 1.22559 0.4
2.51147 1.45 0.4
2.37554 1.66337 0.4
2.22153 1.86408 0.4
2.05061 2.05061 0.4
1.86408 2.22153 0.4
1.66337 2.37554 0.4
1.45 2.51147 0.4
1.22559 2.62829 0.4
0.991858 2.72511 0.4
0.750575 2.80118 0.4
0.50358 2.85594 0.4
0.252752 2.88896 0.4
2.88896 0.252752 0.6
2.85594 0.50358 0.6
2.80118 0.750575 0.6
2.72511 0.991858 0.6
2.62829 1.22559 0.6
2.51147 1.45 0.6
2.37554 1.66337 0.6
2.22153 1.86408 0.6
2.05061 2.05061 0.6
1.86408 2.22153 0.6
1.66337 2.37554 0.6
1.45 2.51147 0.6
1.22559 2.62829 0.6
0.991858 2.72511 0.6
0.750575 2.80118 0.6
0.50358 2.85594 0.6
0.252752 2.88896 0.6
2.88896 0.252752 0.8
2.85594 0.50358 0.8
2.80118 0.750575 0.8
2.72511 0.991858 0.8
2.62829 1.22559 0.8
2.51147 1.45 0.8
2.37554 1.66337 0.8
2.22153 1.86408 0.8
2.05061 2.05061 0.8
1.86408 2.22153 0.8
1.66337 2.37554 0.8
1.45 2.51147 0.8
1.22559 2.62829 0.8
0.991858 2.72511 0.8
0.750575 2.80118 0.8
0.50358 2.85594 0.8
0.252752 2.88896 0.8
3.0882 0.270183 0.2
3.0529 0.538309 0.2
2.99437 0.802339 0.2
2.91305 1.06026 0.2
2.80955 1.31012 0.2
2.68468 1.55 0.2
2.53937 1.77809 0.2
2.37474 1.99264 0.2
2.19203 2.19203 0.2
1.99264 2.37474 0.2
1.77809 2.53937 0.2
1.55 2.68468 0.2
1.31012 2.80955 0.2
1.06026 2.91305 0.2
0.802339 2.99437 0.2
0.538309 3.0529 0.2
0.270183 3.0882 0.2
3.0882 0.270183 0.4
3.0529 0.538309 0.4
2.99437 0.802339 0.4
2.91305 1.06026 0.4
2.80955 1.31012 0.4
2.68468 1.55 0.4
2.53937 1.77809 0.4
2.37474 1.99264 0.4
2.19203 2.19203 0.4
1.99264 2.37474 0.4
1.77809 2.53937 0.4
1.55 2.68468 0.4
1.31012 2.80955 0.4
1.06026 2.91305 0.4
0.802339 2.99437 0.4
0.538309 3.0529 0.4
0.270183 3.0882 0.4
3.0882 0.270183 0.6
3.0529 0.538309 0.6
2.99437 0.802339 0.6
2.91305 1.06026 0.6
2.80955 1.31012 0.6
2.68468 1.55 0.6
2.53937 1.77809 0.6
2.37474 1.99264 0.6
2.19203 2.19203 0.6
1.99264 2.37474 0.6
1.77809 2.53937 0.6
1.55 2.68468 0.6
1.31012 2.80955 0.6
1.06026 2.91305 0.6
0.802339 2.99437 0.6
0.538309 3.0529 0.6
0.270183 3.0882 0.6
3.0882 0.270183 0.8
3.0529 0.538309 0.8
2.99437 0.802339 0.8
2.91305 1.06026 0.8
2.80955 1.31012 0.8
2.68468 1.55 0.8
2.53937 1.77809 0.8
2.37474 1.99264 0.8
2.19203 2.19203 0.8
1.99264 2.37474 0.8
1.77809 2.53937 0.8
1.55 2.68468 0.8
1.31012 2.80955 0.8
1.06026 2.91305 0.8
0.802339 2.99437 0.8
0.538309 3.0529 0.8
0.270183 3.0882 0.8
3.28744 0.287614 0.2
3.24987 0.573039 0.2
3.18756 0.854103 0.2
3.10099 1.12867 0.2
2.99082 1.39464 0.2
2.85788 1.65 0.2
2.7032 1.8928 0.2
2.52795 2.1212 0.2
2.33345 2.33345 0.2
2.1212 2.52795 0.2
1.8928 2.7032 0.2
1.65 2.85788 0.2
1.39464 2.99082 0.2
1.12867 3.10099 0.2
0.854103 3.18756 0.2
0.573039 3.24987 0.2
0.287614 3.28744 0.2
3.28744 0.287614 0.4
3.24987 0.573039 0.4
3.18756 0.854103 0.4
3.10099 1.12867 0.4
2.99082 1.39464 0.4
2.85788 1.65 0.4
2.7032 1.8928 0.4
2.52795 2.1212 0.4
2.33345 2.33345 0.4
2.1212 2.52795 0.4
1.8928 2.7032 0.4
1.65 2.85788 0.4
1.39464 2.99082 0.4
1.12867 3.10099 0.4
0.854103 3.18756 0.4
0.573039 3.24987 0.4
0.287614 3.28744 0.4
3.28744 0.287614 0.6
3.24987 0.573039 0.6
3.18756 0.854103 0.6
3.10099 1.12867 0.6
2.99082 1.39464 0.6
2.85788 1.65 0.6
2.7032 1.8928 0.6
2.52795 2.1212 0.6
2.33345 2.33345 0.6
2.1212 2.52795 0.6
1.8928 2.7032 0.6
1.65 2.85788 0.6
1.39464 2.99082 0.6
1.12867 3.10099 0.6
0.854103 3.18756 0.6
0.573039 3.24987 0.6
0.287614 3.28744 0.6
3.28744 0.287614 0.8
3.24987 0.573039 0.8
3.18756 0.854103 0.8
3.10099 1.12867 0.8
2.99082 1.39464 0.8
2.85788 1.65 0.8
2.7032 1.8928 0.8
2.52795 2.1212 0.8
2.33345 2.33345 0.8
2.1212 2.52795 0.8
1.8928 2.7032 0.8
1.65 2.85788 0.8
1.39464 2.99082 0.8
1.12867 3.10099 0.8
0.854103 3.18756 0.8
0.573039 3.24987 0.8
0.287614 3.28744 0.8
-0.333333 2.7 0.2
-0.666667 2.7 0.2
-1 2.7 0.2
-1.33333 2.7 0.2
-1.66667 2.7 0.2
-0.333333 2.7 0.4
-0.666667 2.7 0.4
-1 2.7 0.4
-1.33333 2.7 0.4
-1.66667 2.7 0.4
-0.333333 2.7 0.6
-0.666667 2.7 0.6
-1 2.7 0.6
-1.33333 2.7 0.6
-1.66667 2.7 0.6
-0.333333 2.7 0.8
-0.666667 2.7 0.8
-1 2.7 0.8
-1.33333 2.7 0.8
-1.66667 2.7 0.8
-0.333333 2.9 0.2
-0.666667 2.9 0.2
-1 2.9 0.2
-1.33333 2.9 0.2
-1.66667 2.9 0.2
-0.333333 2.9 0.4
-0.666667 2.9 0.4
-1 2.9 0.4
-1.33333 2.9 0.4
-1.66667 2.9 0.4
-0.333333 2.9 0.6
-0.666667 2.9 0.6
-1 2.9 0.6
-1.33333 2.9 0.6
-1.66667 2.9 0.6
-0.333333 2.9 0.8
-0.666667 2.9 0.8
-1 2.9 0.8
-1.33333 2.9 0.8
-1.66667 2.9 0.8
-0.333333 3.1 0.2
-0.666667 3.1 0.2
-1 3.1 0.2
-1.33333 3.1 0.2
-1.66667 3.1 0.2
-0.333333 3.1 0.4
-0.666667 3.1 0.4
-1 3.1 0.4
-1.33333 3.1 0.4
-1.66667 3.1 0.4
-0.333333 3.1 0.6
-0.666667 3.1 0.6
-1 3.1 0.6
-1.33333 3.1 0.6
-1.66667 3.1 0.6
-0.333333 3.1 0.8
-0.666667 3.1 0.8
-1 3.1 0.8
-1.33333 3.1 0.8
-1.66667 3.1 0.8
-0.333333 3.3 0.2
-0.666667 3.3 0.2
-1 3.3 0.2
-1.33333 3.3 0.2
-1.66667 3.3 0.2
-0.333333 3.3 0.4
-0.666667 3.3 0.4
-1 3.3 0.4
-1.33333 3.3 0.4
-1.66667 3.3 0.4
-0.333333 3.3 0.6
-0.666667 3.3 0.6
-1 3.3 0.6
-1.33333 3.3 0.6
-1.66667 3.3 0.6
-0.333333 3.3 0.8
-0.666667 3.3 0.8
-1 3.3 0.8
-1.33333 3.3 0.8
-1.66667 3.3 0.8
CELLS 750 6750
8 0 48 279 31 16 204 684 188
8 48 49 280 279 204 205 685 684
8 49 50 281 280 205 206 686 685
8 50 51 282 281 206 207 687 686
8 51 52 283 282 207 208 688 687
8 52 4 47 283 208 32 284 688
8 31 279 274 30 188 684 689 189
8 279 280 275 274 684 685 690 689
8 280 281 276 275 685 686 691 690
8 281 282 277 276 686 687 692 691
8 282 283 278 277 687 688 693 692
8 283 47 46 278 688 284 285 693
8 30 274 269 29 189 689 694 190
8 274 275 270 269 689 690 695 694
8 275 276 271 270 690 691 696 695
8 276 277 272 271 691 692 697 696
8 277 278 273 272 692 693 698 697
8 278 46 45 273 693 285 286 698
8 29 269 264 28 190 694 699 191
8 269 270 265 264 694 695 700 699
8 270 271 266 265 695 696 701 700
8 271 272 267 266 696 697 702 701
8 272 273 268 267 697 698 703 702
8 273 45 44 268 698 286 287 703
8 28 264 63 3 191 699 259 27
8 264 265 64 63 699 700 260 259
8 265 266 65 64 700 701 261 260
8 266 267 66 65 701 702 262 261
8 267 268 67 66 702 703 263 262
8 268 44 7 67 703 287 43 263
8 16 204 684 188 17 209 704 192
8 204 205 685 684 209 210 705 704
8 205 206 686 685 210 211 706 705
8 206 207 687 686 211 212 707 706
8 207 208 688 687 212 213 708 707
8 208 32 284 688 213 33 288 708
8 188 684 689 189 192 704 709 193
8 684 685 690 689 704 705 710 709
8 685 686 691 690 705 706 711 710
8 686 687 692 691 706 707 712 711
8 687 688 693 692 707 708 713 712
8 688 284 285 693 708 288 289 713
8 189 689 694 190 193 709 714 194
8 689 690 695 694 709 710 715 714
8 690 691 696 695 710 711 716 715
8 691 692 697 696 711 712 717 716
8 692 693 698 697 712 713 718 717
8 693 285 286 698 713 289 290 718
8 190 694 699 191 194 714 719 195
8 694 695 700 699 714 715 720 719
8 695 696 701 700 715 716 721 720
8 696 697 702 701 716 717 722 721
8 697 698 703 702 717 718 723 722
8 698 286 287 703 718 290 291 723
8 191 699 259 27 195 719 254 26
8 699 700 260 259 719 720 255 254
8 700 701 261 260 720 721 256 255
8 701 702 262 261 721 722 257 256
8 702 703 263 262 722 723 258 257
8 703 287 43 263 723 291 42 258
8 17 209 704 192 18 214 724 196
8 209 210 705 704 214 215 725 724
8 210 211 706 705 215 216 726 725
8 211 212 707 706 216 217 727 726
8 212 213 708 707 217 218 728 727
8 213 33 288 708 218 34 292 728
8 192 704 709 193 196 724 729 197
8 704 705 710 709 724 725 730 729
8 705 706 711 710 725 726 731 730
8 706 707 712 711 726 727 732 731
8 707 708 713 712 727 728 733 732
8 708 288 289 713 728 292 293 733
8 193 709 714 194 197 729 734 198
8 709 710 715 714 729 730 735 734
8 710 711 716 715 730 731 736 735
8 711 712 717 716 731 732 737 736
8 712 713 718 717 732 733 738 737
8 713 289 290 718 733 293 294 738
8 194 714 719 195 198 734 739 199
8 714 715 720 719 734 735 740 739
8 715 716 721 720 735 736 741 740
8 716 717 722 721 736 737 742 741
8 717 718 723 722 737 738 743 742
8 718 290 291 723 738 294 295 743
8 195 719 254 26 199 739 249 25
8 719 720 255 254 739 740 250 249
8 720 721 256 255 740 741 251 250
8 721 722 257 256 741 742 252 251
8 722 723 258 257 742 743 253 252
8 723 291 42 258 743 295 41 253
8 18 214 724 196 19 219 744 200
8 214 215 725 724 219 220 745 744
8 215 216 726 725 220 221 746 745
8 216 217 727 726 221 222 747 746
8 217 218 728 727 222 223 748 747
8 218 34 292 728 223 35 296 748
8 196 724 729 197 200 744 749 201
8 724 725 730 729 744 745 750 749
8 725 726 731 730 745 746 751 750
8 726 727 732 731 746 747 752 751
8 727 728 733 732 747 748 753 752
8 728 292 293 733 748 296 297 753
8 197 729 734 198 201 749 754 202
8 729 730 735 734 749 750 755 754
8 730 731 736 735 750 751 756 755
8 731 732 737 736 751 752 757 756
8 732 733 738 737 752 753 758 757
8 733 293 294 738 753 297 298 758
8 198 734 739 199 202 754 759 203
8 734 735 740 739 754 755 760 759
8 735 736 741 740 755 756 761 760
8 736 737 742 741 756 757 762 761
8 737 738 743 742 757 758 763 762
8 738 294 295 743 758 298 299 763
8 199 739 249 25 203 759 244 24
8 739 740 250 249 759 760 245 244
8 740 741 251 250 760 761 246 245
8 741 742 252 251 761 762 247 246
8 742 743 253 252 762 763 248 247
8 743 295 41 253 763 299 40 248
8 19 219 744 200 1 53 224 20
8 219 220 745 744 53 54 225 224
8 220 221 746 745 54 55 226 225
8 221 222 747 746 55 56 227 226
8 222 223 748 747 56 57 228 227
8 223 35 296 748 57 5 36 228
8 200 744 749 201 20 224 229 21
8 744 745 750 749 224 225 230 229
8 745 746 751 750 225 226 231 230
8 746 747 752 751 226 227 232 231
8 747 748 753 752 227 228 233 232
8 748 296 297 753 228 36 37 233
8 201 749 754 202 21 229 234 22
8 749 750 755 754 229 230 235 234
8 750 751 756 755 230 231 236 235
8 751 752 757 756 231 232 237 236
8 752 753 758 757 232 233 238 237
8 753 297 298 758 233 37 38 238
8 202 754 759 203 22 234 239 23
8 754 755 760 759 234 235 240 239
8 755 756 761 760 235 236 241 240
8 756 757 762 761 236 237 242 241
8 757 758 763 762 237 238 243 242
8 758 298 299 763 238 38 39 243
8 203 759 244 24 23 239 58 2
8 759 760 245 244 239 240 59 58
8 760 761 246 245 240 241 60 59
8 761 762 247 246 241 242 61 60
8 762 763 248 247 242 243 62 61
8 763 299 40 248 243 39 6 62
8 4 84 555 47 32 300 764 284
8 84 85 556 555 300 301 765 764
8 85 86 557 556 301 302 766 765
8 86 87 558 557 302 303 767 766
8 87 88 559 558 303 304 768 767
8 88 89 560 559 304 305 769 768
8 89 90 561 560 305 306 770 769
8 90 91 562 561 306 307 771 770
8 91 92 563 562 307 308 772 771
8 92 93 564 563 308 309 773 772
8 93 94 565 564 309 310 774 773
8 94 95 566 565 310 311 775 774
8 95 96 567 566 311 312 776 775
8 96 97 568 567 312 313 777 776
8 97 98 569 568 313 314 778 777
8 98 99 570 569 314 315 779 778
8 99 100 571 570 315 316 780 779
8 100 8 83 571 316 68 572 780
8 47 555 538 46 284 764 781 285
8 555 556 539 538 764 765 782 781
8 556 557 540 539 765 766 783 782
8 557 558 541 540 766 767 784 783
8 558 559 542 541 767 768 785 784
8 559 560 543 542 768 769 786 785
8 560 561 544 543 769 770 787 786
8 561 562 545 544 770 771 788 787
8 562 563 546 545 771 772 789 788
8 563 564 547 546 772 773 790 789
8 564 565 548 547 773 774 791 790
8 565 566 549 548 774 775 792 791
8 566 567 550 549 775 776 793 792
8 567 568 551 550 776 777 794 793
8 568 569 552 551 777 778 795 794
8 569 570 553 552 778 779 796 795
8 570 571 554 553 779 780 797 796
8 571 83 82 554 780 572 573 797
8 46 538 521 45 285 781 798 286
8 538 539 522 521 781 782 799 798
8 539 540 523 522 782 783 800 799
8 540 541 524 523 783 784 801 800
8 541 542 525 524 784 785 802 801
8 542 543 526 525 785 786 803 802
8 543 544 527 526 786 787 804 803
8 544 545 528 527 787 788 805 804
8 545 546 529 528 788 789 806 805
8 546 547 530 529 789 790 807 806
8 547 548 531 530 790 791 808 807
8 548 549 532 531 791 792 809 808
8 549 550 533 532 792 793 810 809
8 550 551 534 533 793 794 811 810
8 551 552 535 534 794 795 812 811
8 552 553 536 535 795 796 813 812
8 553 554 537 536 796 797 814 813
8 554 82 81 537 797 573 574 814
8 45 521 504 44 286 798 815 287
8 521 522 505 504 798 799 816 815
8 522 523 506 505 799 800 817 816
8 523 524 507 506 800 801 818 817
8 524 525 508 507 801 802 819 818
8 525 526 509 508 802 803 820 819
8 526 527 510 509 803 804 821 820
8 527 528 511 510 804 805 822 821
8 528 529 512 511 805 806 823 822
8 529 530 513 512 806 807 824 823
8 530 531 514 513 807 808 825 824
8 531 532 515 514 808 809 826 825
8 532 533 516 515 809 810 827 826
8 533 534 517 516 810 811 828 827
8 534 535 518 517 811 812 829 828
8 535 536 519 518 812 813 830 829
8 536 537 520 519 813 814 831 830
8 537 81 80 520 814 574 575 831
8 44 504 135 7 287 815 487 43
8 504 505 136 135 815 816 488 487
8 505 506 137 136 816 817 489 488
8 506 507 138 137 817 818 490 489
8 507 508 139 138 818 819 491 490
8 508 509 140 139 819 820 492 491
8 509 510 141 140 820 821 493 492
8 510 511 142 141 821 822 494 493
8 511 512 143 142 822 823 495 494
8 512 513 144 143 823 824 496 495
8 513 514 145 144 824 825 497 496
8 514 515 146 145 825 826 498 497
8 515 516 147 146 826 827 499 498
8 516 517 148 147 827 828 500 499
8 517 518 149 148 828 829 501 500
8 518 519 150 149 829 830 502 501
8 519 520 151 150 830 831 503 502
8 520 80 11 151 831 575 79 503
8 32 300 764 284 33 317 832 288
8 300 301 765 764 317 318 833 832
8 301 302 766 765 318 319 834 833
8 302 303 767 766 319 320 835 834
8 303 304 768 767 320 321 836 835
8 304 305 769 768 321 322 837 836
8 305 306 770 769 322 323 838 837
8 306 307 771 770 323 324 839 838
8 307 308 772 771 324 325 840 839
8 308 309 773 772 325 326 841 840
8 309 310 774 773 326 327 842 841
8 310 311 775 774 327 328 843 842
8 311 312 776 775 328 329 844 843
8 312 313 777 776 329 330 845 844
8 313 314 778 777 330 331 846 845
8 314 315 779 778 331 332 847 846
8 315 316 780 779 332 333 848 847
8 316 68 572 780 333 69 576 848
8 284 764 781 285 288 832 849 289
8 764 765 782 781 832 833 850 849
8 765 766 783 782 833 834 851 850
8 766 767 784 783 834 835 852 851
8 767 768 785 784 835 836 853 852
8 768 769 786 785 836 837 854 853
8 769 770 787 786 837 838 855 854
8 770 771 788 787 838 839 856 855
8 771 772 789 788 839 840 857 856
8 772 773 790 789 840 841 858 857
8 773 774 791 790 841 842 859 858
8 774 775 792 791 842 843 860 859
8 775 776 793 792 843 844 861 860
8 776 777 794 793 844 845 862 861
8 777 778 795 794 845 846 863 862
8 778 779 796 795 846 847 864 863
8 779 780 797 796 847 848 865 864
8 780 572 573 797 848 576 577 865
8 285 781 798 286 289 849 866 290
8 781 782 799 798 849 850 867 866
8 782 783 800 799 850 851 868 867
8 783 784 801 800 851 852 869 868
8 784 785 802 801 852 853 870 869
8 785 786 803 802 853 854 871 870
8 786 787 804 803 854 855 872 871
8 787 788 805 804 855 856 873 872
8 788 789 806 805 856 857 874 873
8 789 790 807 806 857 858 875 874
8 790 791 808 807 858 859 876 875
8 791 792 809 808 859 860 877 876
8 792 793 810 809 860 861 878 877
8 793 794 811 810 861 862 879 878
8 794 795 812 811 862 863 880 879
8 795 796 813 812 863 864 881 880
8 796 797 814 813 864 865 882 881
8 797 573 574 814 865 577 578 882
8 286 798 815 287 290 866 883 291
8 798 799 816 815 866 867 884 883
8 799 800 817 816 867 868 885 884
8 800 801 818 817 868 869 886 885
8 801 802 819 818 869 870 887 886
8 802 803 820 819 870 871 888 887
8 803 804 821 820 871 872 889 888
8 804 805 822 821 872 873 890 889
8 805 806 823 822 873 874 891 890
8 806 807 824 823 874 875 892 891
8 807 808 825 824 875 876 893 892
8 808 809 826 825 876 877 894 893
8 809 810 827 826 877 878 895 894
8 810 811 828 827 878 879 896 895
8 811 812 829 828 879 880 897 896
8 812 813 830 829 880 881 898 897
8 813 814 831 830 881 882 899 898
8 814 574 575 831 882 578 579 899
8 287 815 487 43 291 883 470 42
8 815 816 488 487 883 884 471 470
8 816 817 489 488 884 885 472 471
8 817 818 490 489 885 886 473 472
8 818 819 491 490 886 887 474 473
8 819 820 492 491 887 888 475 474
8 820 821 493 492 888 889 476 475
8 821 822 494 493 889 890 477 476
8 822 823 495 494 890 891 478 477
8 823 824 496 495 891 892 479 478
8 824 825 497 496 892 893 480 479
8 825 826 498 497 893 894 481 480
8 826 827 499 498 894 895 482 481
8 827 828 500 499 895 896 483 482
8 828 829 501 500 896 897 484 483
8 829 830 502 501 897 898 485 484
8 830 831 503 502 898 899 486 485
8 831 575 79 503 899 579 78 486
8 33 317 832 288 34 334 900 292
8 317 318 833 832 334 335 901 900
8 318 319 834 833 335 336 902 901
8 319 320 835 834 336 337 903 902
8 320 321 836 835 337 338 904 903
8 321 322 837 836 338 339 905 904
8 322 323 838 837 339 340 906 905
8 323 324 839 838 340 341 907 906
8 324 325 840 839 341 342 908 907
8 325 326 841 840 342 343 909 908
8 326 327 842 841 343 344 910 909
8 327 328 843 842 344 345 911 910
8 328 329 844 843 345 346 912 911
8 329 330 845 844 346 347 913 912
8 330 331 846 845 347 348 914 913
8 331 332 847 846 348 349 915 914
8 332 333 848 847 349 350 916 915
8 333 69 576 848 350 70 580 916
8 288 832 849 289 292 900 917 293
8 832 833 850 849 900 901 918 917
8 833 834 851 850 901 902 919 918
8 834 835 852 851 902 903 920 919
8 835 836 853 852 903 904 921 920
8 836 837 854 853 904 905 922 921
8 837 838 855 854 905 906 923 922
8 838 839 856 855 906 907 924 923
8 839 840 857 856 907 908 925 924
8 840 841 858 857 908 909 926 925
8 841 842 859 858 909 910 927 926
8 842 843 860 859 910 911 928 927
8 843 844 861 860 911 912 929 928
8 844 845 862 861 912 913 930 929
8 845 846 863 862 913 914 931 930
8 846 847 864 863 914 915 932 931
8 847 848 865 864 915 916 933 932
8 848 576 577 865 916 580 581 933
8 289 849 866 290 293 917 934 294
8 849 850 867 866 917 918 935 934
8 850 851 868 867 918 919 936 935
8 851 852 869 868 919 920 937 936
8 852 853 870 869 920 921 938 937
8 853 854 871 870 921 922 939 938
8 854 855 872 871 922 923 940 939
8 855 856 873 872 923 924 941 940
8 856 857 874 873 924 925 942 941
8 857 858 875 874 925 926 943 942
8 858 859 876 875 926 927 944 943
8 859 860 877 876 927 928 945 944
8 860 861 878 877 928 929 946 945
8 861 862 879 878 929 930 947 946
8 862 863 880 879 930 931 948 947
8 863 864 881 880 931 932 949 948
8 864 865 882 881 932 933 950 949
8 865 577 578 882 933 581 582 950
8 290 866 883 291 294 934 951 295
8 866 867 884 883 934 935 952 951
8 867 868 885 884 935 936 953 952
8 868 869 886 885 936 937 954 953
8 869 870 887 886 937 938 955 954
8 870 871 888 887 938 939 956 955
8 871 872 889 888 939 940 957 956
8 872 873 890 889 940 941 958 957
8 873 874 891 890 941 942 959 958
8 874 875 892 891 942 943 960 959
8 875 876 893 892 943 944 961 960
8 876 877 894 893 944 945 962 961
8 877 878 895 894 945 946 963 962
8 878 879 896 895 946 947 964 963
8 879 880 897 896 947 948 965 964
8 880 881 898 897 948 949 966 965
8 881 882 899 898 949 950 967 966
8 882 578 579 899 950 582 583 967
8 291 883 470 42 295 951 453 41
8 883 884 471 470 951 952 454 453
8 884 885 472 471 952 953 455 454
8 885 886 473 472 953 954 456 455
8 886 887 474 473 954 955 457 456
8 887 888 475 474 955 956 458 457
8 888 889 476 475 956 957 459 458
8 889 890 477 476 957 958 460 459
8 890 891 478 477 958 959 461 460
8 891 892 479 478 959 960 462 461
8 892 893 480 479 960 961 463 462
8 893 894 481 480 961 962 464 463
8 894 895 482 481 962 963 465 464
8 895 896 483 482 963 964 466 465
8 896 897 484 483 964 965 467 466
8 897 898 485 484 965 966 468 467
8 898 899 486 485 966 967 469 468
8 899 579 78 486 967 583 77 469
8 34 334 900 292 35 351 968 296
8 334 335 901 900 351 352 969 968
8 335 336 902 901 352 353 970 969
8 336 337 903 902 353 354 971 970
8 337 338 904 903 354 355 972 971
8 338 339 905 904 355 356 973 972
8 339 340 906 905 356 357 974 973
8 340 341 907 906 357 358 975 974
8 341 342 908 907 358 359 976 975
8 342 343 909 908 359 360 977 976
8 343 344 910 909 360 361 978 977
8 344 345 911 910 361 362 979 978
8 345 346 912 911 362 363 980 979
8 346 347 913 912 363 364 981 980
8 347 348 914 913 364 365 982 981
8 348 349 915 914 365 366 983 982
8 349 350 916 915 366 367 984 983
8 350 70 580 916 367 71 584 984
8 292 900 917 293 296 968 985 297
8 900 901 918 917 968 969 986 985
8 901 902 919 918 969 970 987 986
8 902 903 920 919 970 971 988 987
8 903 904 921 920 971 972 989 988
8 904 905 922 921 972 973 990 989
8 905 906 923 922 973 974 991 990
8 906 907 924 923 974 975 992 991
8 907 908 925 924 975 976 993 992
8 908 909 926 925 976 977 994 993
8 909 910 927 926 977 978 995 994
8 910 911 928 927 978 979 996 995
8 911 912 929 928 979 980 997 996
8 912 913 930 929 980 981 998 997
8 913 914 931 930 981 982 999 998
8 914 915 932 931 982 983 1000 999
8 915 916 933 932 983 984 1001 1000
8 916 580 581 933 984 584 585 1001
8 293 917 934 294 297 985 1002 298
8 917 918 935 934 985 986 1003 1002
8 918 919 936 935 986 987 1004 1003
8 919 920 937 936 987 988 1005 1004
8 920 921 938 937 988 989 1006 1005
8 921 922 939 938 989 990 1007 1006
8 922 923 940 939 990 991 1008 1007
8 923 924 941 940 991 992 1009 1008
8 924 925 942 941 992 993 1010 1009
8 925 926 943 942 993 994 1011 1010
8 926 927 944 943 994 995 1012 1011
8 927 928 945 944 995 996 1013 1012
8 928 929 946 945 996 997 1014 1013
8 929 930 947 946 997 998 1015 1014
8 930 931 948 947 998 999 1016 1015
8 931 932 949 948 999 1000 1017 1016
8 932 933 950 949 1000 1001 1018 1017
8 933 581 582 950 1001 585 586 1018
8 294 934 951 295 298 1002 1019 299
8 934 935 952 951 1002 1003 1020 1019
8 935 936 953 952 1003 1004 1021 1020
8 936 937 954 953 1004 1005 1022 1021
8 937 938 955 954 1005 1006 1023 1022
8 938 939 956 955 1006 1007 1024 1023
8 939 940 957 956 1007 1008 1025 1024
8 940 941 958 957 1008 1009 1026 1025
8 941 942 959 958 1009 1010 1027 1026
8 942 943 960 959 1010 1011 1028 1027
8 943 944 961 960 1011 1012 1029 1028
8 944 945 962 961 1012 1013 1030 1029
8 945 946 963 962 1013 1014 1031 1030
8 946 947 964 963 1014 1015 1032 1031
8 947 948 965 964 1015 1016 1033 1032
8 948 949 966 965 1016 1017 1034 1033
8 949 950 967 966 1017 1018 1035 1034
8 950 582 583 967 1018 586 587 1035
8 295 951 453 41 299 1019 436 40
8 951 952 454 453 1019 1020 437 436
8 952 953 455 454 1020 1021 438 437
8 953 954 456 455 1021 1022 439 438
8 954 955 457 456 1022 1023 440 439
8 955 956 458 457 1023 1024 441 440
8 956 957 459 458 1024 1025 442 441
8 957 958 460 459 1025 1026 443 442
8 958 959 461 460 1026 1027 444 443
8 959 960 462 461 1027 1028 445 444
8 960 961 463 462 1028 1029 446 445
8 961 962 464 463 1029 1030 447 446
8 962 963 465 464 1030 1031 448 447
8 963 964 466 465 1031 1032 449 448
8 964 965 467 466 1032 1033 450 449
8 965 966 468 467 1033 1034 451 450
8 966 967 469 468 1034 1035 452 451
8 967 583 77 469 1035 587 76 452
8 35 351 968 296 5 101 368 36
8 351 352 969 968 101 102 369 368
8 352 353 970 969 102 103 370 369
8 353 354 971 970 103 104 371 370
8 354 355 972 971 104 105 372 371
8 355 356 973 972 105 106 373 372
8 356 357 974 973 106 107 374 373
8 357 358 975 974 107 108 375 374
8 358 359 976 975 108 109 376 375
8 359 360 977 976 109 110 377 376
8 360 361 978 977 110 111 378 377
8 361 362 979 978 111 112 379 378
8 362 363 980 979 112 113 380 379
8 363 364 981 980 113 114 381 380
8 364 365 982 981 114 115 382 381
8 365 366 983 982 115 116 383 382
8 366 367 984 983 116 117 384 383
8 367 71 584 984 117 9 72 384
8 296 968 985 297 36 368 385 37
8 968 969 986 985 368 369 386 385
8 969 970 987 986 369 370 387 386
8 970 971 988 987 370 371 388 387
8 971 972 989 988 371 372 389 388
8 972 973 990 989 372 373 390 389
8 973 974 991 990 373 374 391 390
8 974 975 992 991 374 375 392 391
8 975 976 993 992 375 376 393 392
8 976 977 994 993 376 377 394 393
8 977 978 995 994 377 378 395 394
8 978 979 996 995 378 379 396 395
8 979 980 997 996 379 380 397 396
8 980 981 998 997 380 381 398 397
8 981 982 999 998 381 382 399 398
8 982 983 1000 999 382 383 400 399
8 983 984 1001 1000 383 384 401 400
8 984 584 585 1001 384 72 73 401
8 297 985 1002 298 37 385 402 38
8 985 986 1003 1002 385 386 403 402
8 986 987 1004 1003 386 387 404 403
8 987 988 1005 1004 387 388 405 404
8 988 989 1006 1005 388 389 406 405
8 989 990 1007 1006 389 390 407 406
8 990 991 1008 1007 390 391 408 407
8 991 992 1009 1008 391 392 409 408
8 992 993 1010 1009 392 393 410 409
8 993 994 1011 1010 393 394 411 410
8 994 995 1012 1011 394 395 412 411
8 995 996 1013 1012 395 396 413 412
8 996 997 1014 1013 396 397 414 413
8 997 998 1015 1014 397 398 415 414
8 998 999 1016 1015 398 399 416 415
8 999 1000 1017 1016 399 400 417 416
8 1000 1001 1018 1017 400 401 418 417
8 1001 585 586 1018 401 73 74 418
8 298 1002 1019 299 38 402 419 39
8 1002 1003 1020 1019 402 403 420 419
8 1003 1004 1021 1020 403 404 421 420
8 1004 1005 1022 1021 404 405 422 421
8 1005 1006 1023 1022 405 406 423 422
8 1006 1007 1024 1023 406 407 424 423
8 1007 1008 1025 1024 407 408 425 424
8 1008 1009 1026 1025 408 409 426 425
8 1009 1010 1027 1026 409 410 427 426
8 1010 1011 1028 1027 410 411 428 427
8 1011 1012 1029 1028 411 412 429 428
8 1012 1013 1030 1029 412 413 430 429
8 1013 1014 1031 1030 413 414 431 430
8 1014 1015 1032 1031 414 415 432 431
8 1015 1016 1033 1032 415 416 433 432
8 1016 1017 1034 1033 416 417 434 433
8 1017 1018 1035 1034 417 418 435 434
8 1018 586 587 1035 418 74 75 435
8 299 1019 436 40 39 419 118 6
8 1019 1020 437 436 419 420 119 118
8 1020 1021 438 437 420 421 120 119
8 1021 1022 439 438 421 422 121 120
8 1022 1023 440 439 422 423 122 121
8 1023 1024 441 440 423 424 123 122
8 1024 1025 442 441 424 425 124 123
8 1025 1026 443 442 425 426 125 124
8 1026 1027 444 443 426 427 126 125
8 1027 1028 445 444 427 428 127 126
8 1028 1029 446 445 428 429 128 127
8 1029 1030 447 446 429 430 129 128
8 1030 1031 448 447 430 431 130 129
8 1031 1032 449 448 431 432 131 130
8 1032 1033 450 449 432 433 132 131
8 1033 1034 451 450 433 434 133 132
8 1034 1035 452 451 434 435 134 133
8 1035 587 76 452 435 75 10 134
8 8 168 663 83 68 588 1036 572
8 168 169 664 663 588 589 1037 1036
8 169 170 665 664 589 590 1038 1037
8 170 171 666 665 590 591 1039 1038
8 171 172 667 666 591 592 1040 1039
8 172 12 167 667 592 152 668 1040
8 83 663 658 82 572 1036 1041 573
8 663 664 659 658 1036 1037 1042 1041
8 664 665 660 659 1037 1038 1043 1042
8 665 666 661 660 1038 1039 1044 1043
8 666 667 662 661 1039 1040 1045 1044
8 667 167 166 662 1040 668 669 1045
8 82 658 653 81 573 1041 1046 574
8 658 659 654 653 1041 1042 1047 1046
8 659 660 655 654 1042 1043 1048 1047
8 660 661 656 655 1043 1044 1049 1048
8 661 662 657 656 1044 1045 1050 1049
8 662 166 165 657 1045 669 670 1050
8 81 653 648 80 574 1046 1051 575
8 653 654 649 648 1046 1047 1052 1051
8 654 655 650 649 1047 1048 1053 1052
8 655 656 651 650 1048 1049 1054 1053
8 656 657 652 651 1049 1050 1055 1054
8 657 165 164 652 1050 670 671 1055
8 80 648 183 11 575 1051 643 79
8 648 649 184 183 1051 1052 644 643
8 649 650 185 184 1052 1053 645 644
8 650 651 186 185 1053 1054 646 645
8 651 652 187 186 1054 1055 647 646
8 652 164 15 187 1055 671 163 647
8 68 588 1036 572 69 593 1056 576
8 588 589 1037 1036 593 594 1057 1056
8 589 590 1038 1037 594 595 1058 1057
8 590 591 1039 1038 595 596 1059 1058
8 591 592 1040 1039 596 597 1060 1059
8 592 152 668 1040 597 153 672 1060
8 572 1036 1041 573 576 1056 1061 577
8 1036 1037 1042 1041 1056 1057 1062 1061
8 1037 1038 1043 1042 1057 1058 1063 1062
8 1038 1039 1044 1043 1058 1059 1064 1063
8 1039 1040 1045 1044 1059 1060 1065 1064
8 1040 668 669 1045 1060 672 673 1065
8 573 1041 1046 574 577 1061 1066 578
8 1041 1042 1047 1046 1061 1062 1067 1066
8 1042 1043 1048 1047 1062 1063 1068 1067
8 1043 1044 1049 1048 1063 1064 1069 1068
8 1044 1045 1050 1049 1064 1065 1070 1069
8 1045 669 670 1050 1065 673 674 1070
8 574 1046 1051 575 578 1066 1071 579
8 1046 1047 1052 1051 1066 1067 1072 1071
8 1047 1048 1053 1052 1067 1068 1073 1072
8 1048 1049 1054 1053 1068 1069 1074 1073
8 1049 1050 1055 1054 1069 1070 1075 1074
8 1050 670 671 1055 1070 674 675 1075
8 575 1051 643 79 579 1071 638 78
8 1051 1052 644 643 1071 1072 639 638
8 1052 1053 645 644 1072 1073 640 639
8 1053 1054 646 645 1073 1074 641 640
8 1054 1055 647 646 1074 1075 642 641
8 1055 671 163 647 1075 675 162 642
8 69 593 1056 576 70 598 1076 580
8 593 594 1057 1056 598 599 1077 1076
8 594 595 1058 1057 599 600 1078 1077
8 595 596 1059 1058 600 601 1079 1078
8 596 597 1060 1059 601 602 1080 1079
8 597 153 672 1060 602 154 676 1080
8 576 1056 1061 577 580 1076 1081 581
8 1056 1057 1062 1061 1076 1077 1082 1081
8 1057 1058 1063 1062 1077 1078 1083 1082
8 1058 1059 1064 1063 1078 1079 1084 1083
8 1059 1060 1065 1064 1079 1080 1085 1084
8 1060 672 673 1065 1080 676 677 1085
8 577 1061 1066 578 581 1081 1086 582
8 1061 1062 1067 1066 1081 1082 1087 1086
8 1062 1063 1068 1067 1082 1083 1088 1087
8 1063 1064 1069 1068 1083 1084 1089 1088
8 1064 1065 1070 1069 1084 1085 1090 1089
8 1065 673 674 1070 1085 677 678 1090
8 578 1066 1071 579 582 1086 1091 583
8 1066 1067 1072 1071 1086 1087 1092 1091
8 1067 1068 1073 1072 1087 1088 1093 1092
8 1068 1069 1074 1073 1088 1089 1094 1093
8 1069 1070 1075 1074 1089 1090 1095 1094
8 1070 674 675 1075 1090 678 679 1095
8 579 1071 638 78 583 1091 633 77
8 1071 1072 639 638 1091 1092 634 633
8 1072 1073 640 639 1092 1093 635 634
8 1073 1074 641 640 1093 1094 636 635
8 1074 1075 642 641 1094 1095 637 636
8 1075 675 162 642 1095 679 161 637
8 70 598 1076 580 71 603 1096 584
8 598 599 1077 1076 603 604 1097 1096
8 599 600 1078 1077 604 605 1098 1097
8 600 601 1079 1078 605 606 1099 1098
8 601 602 1080 1079 606 607 1100 1099
8 602 154 676 1080 607 155 680 1100
8 580 1076 1081 581 584 1096 1101 585
8 1076 1077 1082 1081 1096 1097 1102 1101
8 1077 1078 1083 1082 1097 1098 1103 1102
8 1078 1079 1084 1083 1098 1099 1104 1103
8 1079 1080 1085 1084 1099 1100 1105 1104
8 1080 676 677 1085 1100 680 681 1105
8 581 1081 1086 582 585 1101 1106 586
8 1081 1082 1087 1086 1101 1102 1107 1106
8 1082 1083 1088 1087 1102 1103 1108 1107
8 1083 1084 1089 1088 1103 1104 1109 1108
8 1084 1085 1090 1089 1104 1105 1110 1109
8 1085 677 678 1090 1105 681 682 1110
8 582 1086 1091 583 586 1106 1111 587
8 1086 1087 1092 1091 1106 1107 1112 1111
8 1087 1088 1093 1092 1107 1108 1113 1112
8 1088 1089 1094 1093 1108 1109 1114 1113
8 1089 1090 1095 1094 1109 1110 1115 1114
8 1090 678 679 1095 1110 682 683 1115
8 583 1091 633 77 587 1111 628 76
8 1091 1092 634 633 1111 1112 629 628
8 1092 1093 635 634 1112 1113 630 629
8 1093 1094 636 635 1113 1114 631 630
8 1094 1095 637 636 1114 1115 632 631
8 1095 679 161 637 1115 683 160 632
8 71 603 1096 584 9 173 608 72
8 603 604 1097 1096 173 174 609 608
8 604 605 1098 1097 174 175 610 609
8 605 606 1099 1098 175 176 611 610
8 606 607 1100 1099 176 177 612 611
8 607 155 680 1100 177 13 156 612
8 584 1096 1101 585 72 608 613 73
8 1096 1097 1102 1101 608 609 614 613
8 1097 1098 1103 1102 609 610 615 614
8 1098 1099 1104 1103 610 611 616 615
8 1099 1100 1105 1104 611 612 617 616
8 1100 680 681 1105 612 156 157 617
8 585 1101 1106 586 73 613 618 74
8 1101 1102 1107 1106 613 614 619 618
8 1102 1103 1108 1107 614 615 620 619
8 1103 1104 1109 1108 615 616 621 620
8 1104 1105 1110 1109 616 617 622 621
8 1105 681 682 1110 617 157 158 622
8 586 1106 1111 587 74 618 623 75
8 1106 1107 1112 1111 618 619 624 623
8 1107 1108 1113 1112 619 620 625 624
8 1108 1109 1114 1113 620 621 626 625
8 1109 1110 1115 1114 621 622 627 626
8 1110 682 683 1115 622 158 159 627
8 587 1111 628 76 75 623 178 10
8 1111 1112 629 628 623 624 179 178
8 1112 1113 630 629 624 625 180 179
8 1113 1114 631 630 625 626 181 180
8 1114 1115 632 631 626 627 182 181
8 1115 683 160 632 627 159 14 182
CELL_TYPES 750
12
12
12
12
12
12
12
12
12
12
12
12
12
12
12
12
12
12
12
12
12
12
12
12
12
12
12
12
12
12
12
12
12
12
12
12
12
12
12
12
12
12
12
12
12
12
12
12
12
12
12
12
12
12
12
12
12
12
12
12
12
12
12
12
12
12
12
12
12
12
12
12
12
12
12
12
12
12
12
12
12
12
12
12
12
12
12
12
12
12
12
12
12
12
12
12
12
12
12
12
12
12
12
12
12
12
12
12
12
12
12
12
12
12
12
12
12
12
12
12
12
12
12
12
12
12
12
12
12
12
12
12
12
12
12
12
12
12
12
12
12
12
12
12
12
12
12
12
12
12
12
12
12
12
12
12
12
12
12
12
12
12
12
12
12
12
12
12
12
12
12
12
12
12
12
12
12
12
12
12
12
12
12
12
12
12
12
12
12
12
12
12
12
12
12
12
12
12
12
12
12
12
12
12
12
12
12
12
12
12
12
12
12
12
12
12
12
12
12
12
12
12
12
12
12
12
12
12
12
12
12
12
12
12
12
12
12
12
12
12
12
12
12
12
12
12
12
12
12
12
12
12
12
12
12
12
12
12
12
12
12
12
12
12
12
12
12
12
12
12
12
12
12
12
12
12
12
12
12
12
12
12
12
12
12
12
12
12
12
12
12
12
12
12
12
12
12
12
12
12
12
12
12
12
12
12
12
12
12
12
12
12
12
12
12
12
12
12
12
12
12
12
12
12
12
12
12
12
12
12
12
12
12
12
12
12
12
12
12
12
12
12
12
12
12
12
12
12
12
12
12
12
12
12
12
12
12
12
12
12
12
12
12
12
12
12
12
12
12
12
12
12
12
12
12
12
12
12
12
12
12
12
12
12
12
12
12
12
12
12
12
12
12
12
12
12
12
12
12
12
12
12
12
12
12
12
12
12
12
12
12
12
12
12
12
12
12
12
12
12
12
12
12
12
12
12
12
12
12
12
12
12
12
12
12
12
12
12
12
12
12
12
12
12
12
12
12
12
12
12
12
12
12
12
12
12
12
12
12
12
12
12
12
12
12
12
12
12
12
12
12
12
12
12
12
12
12
12
12
12
12
12
12
12
12
12
12
12
12
12
12
12
12
12
12
12
12
12
12
12
12
12
12
12
12
12
12
12
12
12
12
12
12
12
12
12
12
12
12
12
12
12
12
12
12
12
12
12
12
12
12
12
12
12
12
12
12
12
12
12
12
12
12
12
12
12
12
12
12
12
12
12
12
12
12
12
12
12
12
12
12
12
12
12
12
12
12
12
12
12
12
12
12
12
12
12
12
12
12
12
12
12
12
12
12
12
12
12
12
12
12
12
12
12
12
12
12
12
12
12
12
12
12
12
12
12
12
12
12
12
12
12
12
12
12
12
12
12
12
12
12
12
12
12
12
12
12
12
12
12
12
12
12
12
12
12
12
12
12
12
12
12
12
12
12
12
12
12
12
12
12
12
12
12
12
12
12
12
12
12
12
12
12
12
12
12
12
12
12
12
12
12
12
12
12
12
12
12
12
12
12
12
12
12
12
12
12
12
12
12
12
12
12
12
12
12
12
12
12
12
12
12
12
12
12
12
12
12
12
12
12
12
12
12
12
12
12
12
12
12
12
12
12
12
12
12
12
12
12
12
12
12
12
12
12
12
12
12
12
12
12
12
12
12
12
12
12
12
12
12
POINT_DATA 1116
SCALARS T[K] double 1
LOOKUP_TABLE default
100
100
100
100
76.6496
77.2012
77.2012
76.6496
23.3504
22.7988
22.7988
23.3504
0
0
0
0
100
100
100
100
100
100
100
100
100
100
100
100
100
100
100
100
76.7328
76.8713
77.0157
77.1357
77.2012
77.2012
77.2012
77.2012
77.1357
77.0157
76.8713
76.7328
76.6496
76.6496
76.6496
76.6496
96.1552
92.3092
88.4592
84.5964
80.6981
96.1569
92.3149
88.477
84.6518
80.862
96.1569
92.3149
88.477
84.6518
80.862
96.1552
92.3092
88.4592
84.5964
80.6981
23.2672
23.1287
22.9843
22.8643
22.7988
22.7988
22.7988
22.7988
22.8643
22.9843
23.1287
23.2672
23.3504
23.3504
23.3504
23.3504
73.8179
70.8892
67.9253
64.9459
61.9599
58.9711
55.9811
52.9907
50
47.0093
44.0189
41.0289
38.0401
35.0541
32.0747
29.1108
26.1821
74.0362
70.9833
67.9652
64.9629
61.9671
58.9742
55.9824
52.9911
50
47.0089
44.0176
41.0258
38.0329
35.0371
32.0348
29.0167
25.9638
74.0362
70.9833
67.9652
64.9629
61.9671
58.9742
55.9824
52.9911
50
47.0089
44.0176
41.0258
38.0329
35.0371
32.0348
29.0167
25.9638
73.8179
70.8892
67.9253
64.9459
61.9599
58.9711
55.9811
52.9907
50
47.0093
44.0189
41.0289
38.0401
35.0541
32.0747
29.1108
26.1821
0
0
0
0
0
0
0
0
0
0
0
0
0
0
0
0
19.3019
15.4036
11.5408
7.69083
3.84482
19.138
15.3482
11.523
7.68507
3.84313
19.138
15.3482
11.523
7.68507
3.84313
19.3019
15.4036
11.5408
7.69083
3.84482
100
100
100
100
100
100
100
100
100
100
100
100
100
100
100
100
96.1553
92.3097
88.4608
84.6021
80.7106
96.1558
92.3112
88.4653
84.6156
80.7539
96.1563
92.3129
88.4708
84.6326
80.807
96.1567
92.3144
88.4753
84.6461
80.8491
96.1569
92.3149
88.477
84.6518
80.862
96.1569
92.3149
88.477
84.6518
80.862
96.1569
92.3149
88.477
84.6518
80.862
96.1569
92.3149
88.477
84.6518
80.862
96.1567
92.3144
88.4753
84.6461
80.8491
96.1563
92.3129
88.4708
84.6326
80.807
96.1558
92.3112
88.4653
84.6156
80.7539
96.1553
92.3097
88.4608
84.6021
80.7106
96.1552
92.3092
88.4592
84.5964
80.6981
96.1552
92.3092
88.4592
84.5964
80.6981
96.1552
92.3092
88.4592
84.5964
80.6981
96.1552
92.3092
88.4592
84.5964
80.6981
76.7328
76.7328
76.7328
76.7328
76.8713
76.8713
76.8713
76.8713
77.0157
77.0157
77.0157
77.0157
77.1357
77.1357
77.1357
77.1357
73.844
70.9011
67.9303
64.9481
61.9608
58.9715
55.9813
52.9907
50
47.0093
44.0187
41.0285
38.0392
35.0519
32.0697
29.0989
26.156
73.9066
70.9276
67.9417
64.9529
61.9629
58.9724
55.9817
52.9908
50
47.0092
44.0183
41.0276
38.0371
35.0471
32.0583
29.0724
26.0934
73.9737
70.9562
67.9538
64.9581
61.9651
58.9733
55.982
52.991
50
47.009
44.018
41.0267
38.0349
35.0419
32.0462
29.0438
26.0263
74.0225
70.9761
67.9624
64.9617
61.9666
58.974
55.9823
52.9911
50
47.0089
44.0177
41.026
38.0334
35.0383
32.0376
29.0239
25.9775
74.0362
70.9833
67.9652
64.9629
61.9671
58.9742
55.9824
52.9911
50
47.0089
44.0176
41.0258
38.0329
35.0371
32.0348
29.0167
25.9638
74.0362
70.9833
67.9652
64.9629
61.9671
58.9742
55.9824
52.9911
50
47.0089
44.0176
41.0258
38.0329
35.0371
32.0348
29.0167
25.9638
74.0362
70.9833
67.9652
64.9629
61.9671
58.9742
55.9824
52.9911
50
47.0089
44.0176
41.0258
38.0329
35.0371
32.0348
29.0167
25.9638
74.0362
70.9833
67.9652
64.9629
61.9671
58.9742
55.9824
52.9911
50
47.0089
44.0176
41.0258
38.0329
35.0371
32.0348
29.0167
25.9638
74.0225
70.9761
67.9624
64.9617
61.9666
58.974
55.9823
52.9911
50
47.0089
44.0177
41.026
38.0334
35.0383
32.0376
29.0239
25.9775
73.9737
70.9562
67.9538
64.9581
61.9651
58.9733
55.982
52.991
50
47.009
44.018
41.0267
38.0349
35.0419
32.0462
29.0438
26.0263
73.9066
70.9276
67.9417
64.9529
61.9629
58.9724
55.9817
52.9908
50
47.0092
44.0183
41.0276
38.0371
35.0471
32.0583
29.0724
26.0934
73.844
70.9011
67.9303
64.9481
61.9608
58.9715
55.9813
52.9907
50
47.0093
44.0187
41.0285
38.0392
35.0519
32.0697
29.0989
26.156
73.8179
70.8892
67.9253
64.9459
61.9599
58.9711
55.9811
52.9907
50
47.0093
44.0189
41.0289
38.0401
35.0541
32.0747
29.1108
26.1821
73.8179
70.8892
67.9253
64.9459
61.9599
58.9711
55.9811
52.9907
50
47.0093
44.0189
41.0289
38.0401
35.0541
32.0747
29.1108
26.1821
73.8179
70.8892
67.9253
64.9459
61.9599
58.9711
55.9811
52.9907
50
47.0093
44.0189
41.0289
38.0401
35.0541
32.0747
29.1108
26.1821
73.8179
70.8892
67.9253
64.9459
61.9599
58.9711
55.9811
52.9907
50
47.0093
44.0189
41.0289
38.0401
35.0541
32.0747
29.1108
26.1821
23.2672
23.2672
23.2672
23.2672
23.1287
23.1287
23.1287
23.1287
22.9843
22.9843
22.9843
22.9843
22.8643
22.8643
22.8643
22.8643
19.2894
15.3979
11.5392
7.69026
3.84466
19.2461
15.3844
11.5347
7.68884
3.84423
19.193
15.3674
11.5292
7.68706
3.84371
19.1509
15.3539
11.5247
7.68563
3.84329
19.138
15.3482
11.523
7.68507
3.84313
19.138
15.3482
11.523
7.68507
3.84313
19.138
15.3482
11.523
7.68507
3.84313
19.138
15.3482
11.523
7.68507
3.84313
19.1509
15.3539
11.5247
7.68563
3.84329
19.193
15.3674
11.5292
7.68706
3.84371
19.2461
15.3844
11.5347
7.68884
3.84423
19.2894
15.3979
11.5392
7.69026
3.84466
19.3019
15.4036
11.5408
7.69083
3.84482
19.3019
15.4036
11.5408
7.69083
3.84482
19.3019
15.4036
11.5408
7.69083
3.84482
19.3019
15.4036
11.5408
7.69083
3.84482
0
0
0
0
0
0
0
0
0
0
0
0
0
0
0
0
96.1553
92.3097
88.4608
84.6021
80.7106
96.1553
92.3097
88.4608
84.6021
80.7106
96.1553
92.3097
88.4608
84.6021
80.7106
96.1553
92.3097
88.4608
84.6021
80.7106
96.1558
92.3112
88.4653
84.6156
80.7539
96.1558
92.3112
88.4653
84.6156
80.7539
96.1558
92.3112
88.4653
84.6156
80.7539
96.1558
92.3112
88.4653
84.6156
80.7539
96.1563
92.3129
88.4708
84.6326
80.807
96.1563
92.3129
88.4708
84.6326
80.807
96.1563
92.3129
88.4708
84.6326
80.807
96.1563
92.3129
88.4708
84.6326
80.807
96.1567
92.3144
88.4753
84.6461
80.8491
96.1567
92.3144
88.4753
84.6461
80.8491
96.1567
92.3144
88.4753
84.6461
80.8491
96.1567
92.3144
88.4753
84.6461
80.8491
73.844
70.9011
67.9303
64.9481
61.9608
58.9715
55.9813
52.9907
50
47.0093
44.0187
41.0285
38.0392
35.0519
32.0697
29.0989
26.156
73.844
70.9011
67.9303
64.9481
61.9608
58.9715
55.9813
52.9907
50
47.0093
44.0187
41.0285
38.0392
35.0519
32.0697
29.0989
26.156
73.844
70.9011
67.9303
64.9481
61.9608
58.9715
55.9813
52.9907
50
47.0093
44.0187
41.0285
38.0392
35.0519
32.0697
29.0989
26.156
73.844
70.9011
67.9303
64.9481
61.9608
58.9715
55.9813
52.9907
50
47.0093
44.0187
41.0285
38.0392
35.0519
32.0697
29.0989
26.156
73.9066
70.9276
67.9417
64.9529
61.9629
58.9724
55.9817
52.9908
50
47.0092
44.0183
41.0276
38.0371
35.0471
32.0583
29.0724
26.0934
73.9066
70.9276
67.9417
64.9529
61.9629
58.9724
55.9817
52.9908
50
47.0092
44.0183
41.0276
38.0371
35.0471
32.0583
29.0724
26.0934
73.9066
70.9276
67.9417
64.9529
61.9629
58.9724
55.9817
52.9908
50
47.0092
44.0183
41.0276
38.0371
35.0471
32.0583
29.0724
26.0934
73.9066
70.9276
67.9417
64.9529
61.9629
58.9724
55.9817
52.9908
50
47.0092
44.0183
41.0276
38.0371
35.0471
32.0583
29.0724
26.0934
73.9737
70.9562
67.9538
64.9581
61.9651
58.9733
55.982
52.991
50
47.009
44.018
41.0267
38.0349
35.0419
32.0462
29.0438
26.0263
73.9737
70.9562
67.9538
64.9581
61.9651
58.9733
55.982
52.991
50
47.009
44.018
41.0267
38.0349
35.0419
32.0462
29.0438
26.0263
73.9737
70.9562
67.9538
64.9581
61.9651
58.9733
55.982
52.991
50
47.009
44.018
41.0267
38.0349
35.0419
32.0462
29.0438
26.0263
73.9737
70.9562
67.9538
64.9581
61.9651
58.9733
55.982
52.991
50
47.009
44.018
41.0267
38.0349
35.0419
32.0462
29.0438
26.0263
74.0225
70.9761
67.9624
64.9617
61.9666
58.974
55.9823
52.9911
50
47.0089
44.0177
41.026
38.0334
35.0383
32.0376
29.0239
25.9775
74.0225
70.9761
67.9624
64.9617
61.9666
58.974
55.9823
52.9911
50
47.0089
44.0177
41.026
38.0334
35.0383
32.0376
29.0239
25.9775
74.0225
70.9761
67.9624
64.9617
61.9666
58.974
55.9823
52.9911
50
47.0089
44.0177
41.026
38.0334
35.0383
32.0376
29.0239
25.9775
74.0225
70.9761
67.9624
64.9617
61.9666
58.974
55.9823
52.9911
50
47.0089
44.0177
41.026
38.0334
35.0383
32.0376
29.0239
25.9775
19.2894
15.3979
11.5392
7.69026
3.84466
19.2894
15.3979
11.5392
7.69026
3.84466
19.2894
15.3979
11.5392
7.69026
3.84466
19.2894
15.3979
11.5392
7.69026
3.84466
19.2461
15.3844
11.5347
7.68884
3.84423
19.2461
15.3844
11.5347
7.68884
3.84423
19.2461
15.3844
11.5347
7.68884
3.84423
19.2461
15.3844
11.5347
7.68884
3.84423
19.193
15.3674
11.5292
7.68706
3.84371
19.193
15.3674
11.5292
7.68706
3.84371
19.193
15.3674
11.5292
7.68706
3.84371
19.193
15.3674
11.5292
7.68706
3.84371
19.1509
15.3539
11.5247
7.68563
3.84329
19.1509
15.3539
11.5247
7.68563
3.84329
19.1509
15.3539
11.5247
7.68563
3.84329
19.1509
15.3539
11.5247
7.68563
3.84329
